<svg width="32" height="32" viewBox="0 0 32 32" fill="none" xmlns="http://www.w3.org/2000/svg">
<g clip-path="url(#clip0_2001_3427)">
<path d="M24.8838 14.4532C24.8835 14.639 24.8094 14.817 24.678 14.9483C24.5465 15.0795 24.3683 15.1532 24.1825 15.1532H22.2332V16.4039H24.1825C24.2769 16.3997 24.3712 16.4148 24.4596 16.4481C24.5481 16.4813 24.6288 16.5322 24.6971 16.5975C24.7654 16.6629 24.8197 16.7414 24.8568 16.8283C24.8939 16.9152 24.913 17.0087 24.913 17.1032C24.913 17.1977 24.8939 17.2912 24.8568 17.3781C24.8197 17.465 24.7654 17.5435 24.6971 17.6089C24.6288 17.6742 24.5481 17.7251 24.4596 17.7583C24.3712 17.7916 24.2769 17.8067 24.1825 17.8025H21.5332C21.3486 17.8011 21.1719 17.727 21.0416 17.5962C20.9113 17.4654 20.8379 17.2885 20.8372 17.1039V11.8025C20.8372 11.4199 21.1505 11.1025 21.5372 11.1025H24.1878C24.3735 11.1031 24.5513 11.1773 24.6822 11.309C24.8131 11.4406 24.8864 11.6189 24.8858 11.8045C24.8853 11.9902 24.811 12.168 24.6794 12.2989C24.5477 12.4298 24.3695 12.5031 24.1838 12.5025H22.2345V13.7532H24.1838C24.5718 13.7532 24.8852 14.0692 24.8852 14.4532H24.8838ZM19.4198 17.7665C19.3483 17.7892 19.2736 17.8004 19.1985 17.7999C19.0888 17.8023 18.98 17.7784 18.8814 17.7301C18.7828 17.6819 18.6972 17.6107 18.6318 17.5225L15.9172 13.8372V17.1039C15.9038 17.2799 15.8245 17.4443 15.6951 17.5643C15.5657 17.6843 15.3957 17.751 15.2192 17.751C15.0427 17.751 14.8727 17.6843 14.7433 17.5643C14.6138 17.4443 14.5345 17.2799 14.5212 17.1039V11.8025C14.5208 11.6182 14.5936 11.4412 14.7236 11.3105C14.8536 11.1797 15.0301 11.1059 15.2145 11.1052C15.4305 11.1052 15.6305 11.2199 15.7638 11.3865L18.4998 15.0865V11.8025C18.4998 11.4199 18.8132 11.1025 19.1998 11.1025C19.5825 11.1025 19.8998 11.4199 19.8998 11.8025V17.1039C19.8996 17.2508 19.8532 17.3939 19.767 17.5128C19.6808 17.6318 19.5594 17.7206 19.4198 17.7665ZM12.8198 17.8025C12.635 17.8015 12.458 17.7275 12.3274 17.5967C12.1969 17.4658 12.1232 17.2887 12.1225 17.1039V11.8025C12.1225 11.4199 12.4372 11.1025 12.8225 11.1025C13.2078 11.1025 13.5212 11.4199 13.5212 11.8025V17.1039C13.5201 17.2893 13.4458 17.4668 13.3144 17.5977C13.1831 17.7285 13.0053 17.8022 12.8198 17.8025ZM10.7798 17.8025H8.1305C7.94541 17.8015 7.76817 17.7276 7.63716 17.5968C7.50614 17.4661 7.4319 17.289 7.4305 17.1039V11.8025C7.4458 11.6274 7.52617 11.4644 7.65576 11.3457C7.78534 11.2269 7.95473 11.161 8.1305 11.161C8.30628 11.161 8.47566 11.2269 8.60525 11.3457C8.73483 11.4644 8.81521 11.6274 8.8305 11.8025V16.4025H10.7825C10.9682 16.4025 11.1462 16.4763 11.2775 16.6076C11.4088 16.7388 11.4825 16.9169 11.4825 17.1025C11.4825 17.2882 11.4088 17.4662 11.2775 17.5975C11.1462 17.7288 10.9682 17.8025 10.7825 17.8025H10.7798ZM15.9998 3.4292C8.64917 3.4292 2.6665 8.28653 2.6665 14.2532C2.6665 19.5999 7.4105 24.0785 13.8172 24.9292C14.2505 25.0199 14.8425 25.2159 14.9918 25.5852C15.1252 25.9185 15.0798 26.4359 15.0345 26.7852L14.8518 27.9185C14.8025 28.2519 14.5852 29.2359 16.0172 28.6345C17.4518 28.0359 23.7025 24.1039 26.5025 20.8852C28.4172 18.7852 29.3332 16.6359 29.3332 14.2532C29.3332 8.28653 23.3492 3.4292 15.9998 3.4292Z" fill="#89A082"/>
</g>
<defs>
<clipPath id="clip0_2001_3427">
<rect width="32" height="32" fill="white"/>
</clipPath>
</defs>
</svg>
