<svg width="32" height="32" viewBox="0 0 32 32" fill="none" xmlns="http://www.w3.org/2000/svg">
<path d="M27.6363 5.81836L16.7272 16.7275M27.6363 5.81836V11.9547M27.6363 5.81836H21.4999M26.2727 17.4093V23.2729C26.2727 24.8003 26.2727 25.564 25.9754 26.1474C25.7139 26.6606 25.2967 27.0778 24.7835 27.3393C24.2001 27.6365 23.4364 27.6365 21.909 27.6365H10.1818C8.65434 27.6365 7.89063 27.6365 7.30723 27.3393C6.79406 27.0778 6.37684 26.6606 6.11537 26.1474C5.81812 25.564 5.81812 24.8003 5.81812 23.2729V11.5456C5.81812 10.0182 5.81812 9.25451 6.11537 8.67111C6.37684 8.15794 6.79406 7.74072 7.30723 7.47925C7.89063 7.182 8.65434 7.182 10.1818 7.182H16.0454" stroke="#C4C4C4" stroke-width="1.5" stroke-linecap="round" stroke-linejoin="round"/>
</svg>
