<svg width="24" height="25" viewBox="0 0 24 25" fill="none" xmlns="http://www.w3.org/2000/svg">
<path d="M19.2856 13.9844C19.2856 12.6044 20.3736 11.4844 21.7142 11.4844V10.4844C21.7142 6.48438 20.7428 5.48438 16.8571 5.48438H7.14279C3.25707 5.48438 2.28564 6.48438 2.28564 10.4844V10.9844C3.62622 10.9844 4.71422 12.1044 4.71422 13.4844C4.71422 14.8644 3.62622 15.9844 2.28564 15.9844V16.4844C2.28564 20.4844 3.25707 21.4844 7.14279 21.4844H16.8571C20.7428 21.4844 21.7142 20.4844 21.7142 16.4844C20.3736 16.4844 19.2856 15.3644 19.2856 13.9844Z" fill="#375B51" stroke="#89A082" stroke-opacity="0.3" stroke-width="0.5" stroke-linecap="round" stroke-linejoin="round"/>
<path d="M9.14258 15.7143L14.8569 10L9.14258 15.7143Z" fill="#375B51"/>
<path d="M9.14258 15.7143L14.8569 10" stroke="white" stroke-width="0.5" stroke-linecap="round" stroke-linejoin="round"/>
<path fill-rule="evenodd" clip-rule="evenodd" d="M14.4237 15.2824H14.434H14.4237Z" fill="#89A082"/>
<path d="M14.4237 15.2824H14.434" stroke="white" stroke-width="2" stroke-linecap="round" stroke-linejoin="round"/>
<path fill-rule="evenodd" clip-rule="evenodd" d="M9.56629 11.5714H9.57657H9.56629Z" fill="#89A082"/>
<path d="M9.56629 11.5714H9.57657" stroke="white" stroke-width="2" stroke-linecap="round" stroke-linejoin="round"/>
</svg>
