<svg width="24" height="25" viewBox="0 0 24 25" fill="none" xmlns="http://www.w3.org/2000/svg">
<path d="M16 2.45312H8C4.5 2.45312 3 4.45312 3 7.45312V17.4531C3 20.4531 4.5 22.4531 8 22.4531H16C19.5 22.4531 21 20.4531 21 17.4531V7.45312C21 4.45312 19.5 2.45312 16 2.45312ZM8 12.7031H12C12.41 12.7031 12.75 13.0431 12.75 13.4531C12.75 13.8631 12.41 14.2031 12 14.2031H8C7.59 14.2031 7.25 13.8631 7.25 13.4531C7.25 13.0431 7.59 12.7031 8 12.7031ZM16 18.2031H8C7.59 18.2031 7.25 17.8631 7.25 17.4531C7.25 17.0431 7.59 16.7031 8 16.7031H16C16.41 16.7031 16.75 17.0431 16.75 17.4531C16.75 17.8631 16.41 18.2031 16 18.2031ZM18.5 9.70312H16.5C14.98 9.70312 13.75 8.47312 13.75 6.95312V4.95312C13.75 4.54312 14.09 4.20312 14.5 4.20312C14.91 4.20312 15.25 4.54312 15.25 4.95312V6.95312C15.25 7.64313 15.81 8.20312 16.5 8.20312H18.5C18.91 8.20312 19.25 8.54313 19.25 8.95312C19.25 9.36312 18.91 9.70312 18.5 9.70312Z" fill="#375B51"/>
</svg>
