<svg width="32" height="23" viewBox="0 0 32 23" fill="none" xmlns="http://www.w3.org/2000/svg">
<path d="M5.68528 11.04L8.69035 10.56C10.0981 10.56 11.3435 11.04 12.4264 12C13.5634 12.9067 14.132 14.2667 14.132 16.08C14.132 17.84 13.5364 19.3333 12.3452 20.56C11.154 21.7867 9.47546 22.4 7.30964 22.4C5.19797 22.4 3.43824 21.6 2.03046 20C0.676819 18.4 0 16.3467 0 13.84C0 11.28 0.974619 8.74667 2.92386 6.24C4.92724 3.73333 7.76988 1.65333 11.4518 0L12.0203 1.36C6.93062 4.13333 4.38579 6.93333 4.38579 9.76C4.38579 10.6133 4.81895 11.04 5.68528 11.04ZM23.5533 11.04L26.5584 10.56C27.9662 10.56 29.2115 11.04 30.2944 12C31.4315 12.9067 32 14.2667 32 16.08C32 17.84 31.4044 19.3333 30.2132 20.56C29.022 21.7867 27.3435 22.4 25.1777 22.4C23.066 22.4 21.3063 21.6 19.8985 20C18.5448 18.4 17.868 16.3467 17.868 13.84C17.868 11.28 18.8426 8.74667 20.7919 6.24C22.7953 3.73333 25.6379 1.65333 29.3198 0L29.8883 1.36C24.7986 4.13333 22.2538 6.93333 22.2538 9.76C22.2538 10.6133 22.687 11.04 23.5533 11.04Z" fill="#375B51"/>
</svg>
