<svg width="24" height="25" viewBox="0 0 24 25" fill="none" xmlns="http://www.w3.org/2000/svg">
<path fill-rule="evenodd" clip-rule="evenodd" d="M13.4747 4.15055C14.3765 3.69645 15.1631 3.54687 16.3834 3.54689C19.5064 3.56019 21.8179 6.26993 21.8179 9.72165C21.8179 12.3563 20.3901 14.9013 17.7305 17.3622C16.3345 18.6539 14.552 19.9323 13.2755 20.6123L12.5452 21.0014L11.8148 20.6123C10.5383 19.9323 8.75593 18.6539 7.35991 17.3622C4.70032 14.9013 3.27246 12.3563 3.27246 9.72165C3.27246 6.233 5.56235 3.54688 8.71348 3.54688C9.89005 3.54688 10.717 3.71059 11.6363 4.17836C11.9564 4.34121 12.2571 4.53439 12.5367 4.75736C12.8276 4.52115 13.1408 4.31867 13.4747 4.15055Z" fill="#375B51" stroke="#375B51" stroke-opacity="0.5" stroke-width="1.5"/>
</svg>
