<svg width="85" height="85" viewBox="0 0 85 85" fill="none" xmlns="http://www.w3.org/2000/svg">
<path d="M42.5 85C65.9721 85 85 65.9721 85 42.5C85 19.0279 65.9721 0 42.5 0C19.0279 0 0 19.0279 0 42.5C0 65.9721 19.0279 85 42.5 85Z" fill="#FFE3E3"/>
<path d="M68 84.9982H17V30.0315C19.4038 30.0288 21.7084 29.0727 23.4081 27.373C25.1079 25.6732 26.064 23.3686 26.0667 20.9648H58.9333C58.9308 22.1556 59.1644 23.3351 59.6207 24.435C60.077 25.5349 60.7469 26.5334 61.5916 27.3727C62.4308 28.2177 63.4294 28.8877 64.5294 29.3441C65.6294 29.8005 66.8091 30.0342 68 30.0315V84.9982Z" fill="white"/>
<path d="M42.4999 57.8016C50.011 57.8016 56.0999 51.7126 56.0999 44.2016C56.0999 36.6905 50.011 30.6016 42.4999 30.6016C34.9888 30.6016 28.8999 36.6905 28.8999 44.2016C28.8999 51.7126 34.9888 57.8016 42.4999 57.8016Z" fill="#FF3E40"/>
<path d="M47.3083 50.6149L42.5 45.8066L37.6917 50.6149L36.0889 49.0121L40.8972 44.2038L36.0889 39.3955L37.6917 37.7927L42.5 42.601L47.3083 37.7927L48.9111 39.3955L44.1028 44.2038L48.9111 49.0121L47.3083 50.6149Z" fill="white"/>
<path d="M49.8664 61.1992H35.1331C34.1942 61.1992 33.4331 61.9603 33.4331 62.8992C33.4331 63.8381 34.1942 64.5992 35.1331 64.5992H49.8664C50.8053 64.5992 51.5664 63.8381 51.5664 62.8992C51.5664 61.9603 50.8053 61.1992 49.8664 61.1992Z" fill="#FFB9BA"/>
<path d="M54.9668 68H30.0335C29.0946 68 28.3335 68.7611 28.3335 69.7C28.3335 70.6389 29.0946 71.4 30.0335 71.4H54.9668C55.9057 71.4 56.6668 70.6389 56.6668 69.7C56.6668 68.7611 55.9057 68 54.9668 68Z" fill="#FFB9BA"/>
</svg>
