<svg width="32" height="32" viewBox="0 0 32 32" fill="none" xmlns="http://www.w3.org/2000/svg">
<path fill-rule="evenodd" clip-rule="evenodd" d="M17.9665 5.16818C19.1689 4.56271 20.2177 4.36328 21.8448 4.3633C26.0088 4.38104 29.0908 7.99402 29.0908 12.5963C29.0908 16.1091 27.187 19.5025 23.6409 22.7837C21.7795 24.506 19.403 26.2105 17.701 27.1172L16.7272 27.636L15.7534 27.1172C14.0514 26.2105 11.6748 24.506 9.81346 22.7837C6.26734 19.5025 4.36353 16.1091 4.36353 12.5963C4.36353 7.94479 7.41671 4.36328 11.6182 4.36328C13.187 4.36328 14.2896 4.58157 15.5153 5.20525C15.942 5.4224 16.343 5.67997 16.7159 5.97726C17.1037 5.66231 17.5214 5.39235 17.9665 5.16818Z" fill="white" stroke="#C4C4C4" stroke-width="1.5"/>
</svg>
