<svg width="24" height="25" viewBox="0 0 24 25" fill="none" xmlns="http://www.w3.org/2000/svg">
<path opacity="0.5" d="M19.7165 20.8624C21.143 20.0846 22 19.0873 22 18C22 16.8475 21.0372 15.7961 19.4537 15C17.6226 14.0794 14.9617 13.5 12 13.5C9.03833 13.5 6.37738 14.0794 4.54631 15C2.96285 15.7961 2 16.8475 2 18C2 19.1525 2.96285 20.2039 4.54631 21C6.37738 21.9206 9.03833 22.5 12 22.5C15.1066 22.5 17.8823 21.8625 19.7165 20.8624Z" fill="white"/>
<path fill-rule="evenodd" clip-rule="evenodd" d="M5 9.01464C5 5.4167 8.13401 2.5 12 2.5C15.866 2.5 19 5.4167 19 9.01464C19 12.5844 16.7658 16.7499 13.2801 18.2396C12.4675 18.5868 11.5325 18.5868 10.7199 18.2396C7.23416 16.7499 5 12.5844 5 9.01464ZM12 11.5C13.1046 11.5 14 10.6046 14 9.5C14 8.39543 13.1046 7.5 12 7.5C10.8954 7.5 10 8.39543 10 9.5C10 10.6046 10.8954 11.5 12 11.5Z" fill="white"/>
</svg>
