<svg width="40" height="40" viewBox="0 0 40 40" fill="none" xmlns="http://www.w3.org/2000/svg">
<path d="M31.4955 25.3335C31.3918 25.2084 31.29 25.0834 31.1901 24.9628C29.8162 23.2995 28.9851 22.2957 28.9851 17.5872C28.9851 15.1495 28.4024 13.1493 27.254 11.6492C26.4072 10.541 25.2626 9.7003 23.7539 9.079C23.7344 9.06819 23.7171 9.05401 23.7027 9.03712C23.16 7.21822 21.675 6 20.0002 6C18.3253 6 16.8409 7.21822 16.2983 9.03525C16.2838 9.05152 16.2667 9.06525 16.2477 9.07588C12.7269 10.5266 11.0159 13.31 11.0159 17.5853C11.0159 22.2957 10.1859 23.2995 8.81084 24.9609C8.71093 25.0816 8.60914 25.2041 8.50548 25.3316C8.2377 25.6548 8.06805 26.0481 8.01658 26.4648C7.96512 26.8815 8.03401 27.3043 8.2151 27.683C8.6004 28.4956 9.42158 29 10.3589 29H29.6483C30.5812 29 31.3968 28.4962 31.7833 27.6874C31.9652 27.3085 32.0347 26.8854 31.9837 26.4682C31.9327 26.051 31.7633 25.6572 31.4955 25.3335Z" fill="#89A082" fill-opacity="0.4"/>
<path d="M19.9997 34C20.815 33.9993 21.6149 33.7541 22.3145 33.2905C23.0142 32.827 23.5876 32.1622 23.9738 31.3669C23.992 31.3288 24.001 31.2861 23.9999 31.243C23.9988 31.1999 23.9877 31.1578 23.9676 31.1209C23.9475 31.084 23.9191 31.0534 23.8852 31.0323C23.8513 31.0111 23.813 31 23.7741 31H16.2265C16.1875 30.9998 16.1492 31.0109 16.1152 31.032C16.0812 31.0532 16.0527 31.0837 16.0326 31.1206C16.0124 31.1576 16.0012 31.1997 16.0001 31.2428C15.999 31.286 16.008 31.3287 16.0262 31.3669C16.4124 32.1621 16.9857 32.8268 17.6852 33.2904C18.3848 33.7539 19.1846 33.9992 19.9997 34Z" fill="#89A082" fill-opacity="0.4"/>
</svg>
