<svg width="22" height="22" viewBox="0 0 22 22" fill="none" xmlns="http://www.w3.org/2000/svg">
<path d="M8.09657 19.1991C8.09657 19.7335 7.66336 20.1667 7.12898 20.1667C6.59459 20.1667 6.16139 19.7335 6.16139 19.1991C6.16139 18.6647 6.59459 18.2315 7.12898 18.2315C7.66336 18.2315 8.09657 18.6647 8.09657 19.1991Z" fill="#D9D9D9"/>
<path d="M18.7401 19.1991C18.7401 19.7335 18.3069 20.1667 17.7725 20.1667C17.2381 20.1667 16.8049 19.7335 16.8049 19.1991C16.8049 18.6647 17.2381 18.2315 17.7725 18.2315C18.3069 18.2315 18.7401 18.6647 18.7401 19.1991Z" fill="#D9D9D9"/>
<path d="M5.48385 4.68519H19.7077L17.7725 11.4583H6.52589M18.7401 15.3287H7.12898L5.19379 2.75H2.29102M8.09657 19.1991C8.09657 19.7335 7.66336 20.1667 7.12898 20.1667C6.59459 20.1667 6.16139 19.7335 6.16139 19.1991C6.16139 18.6647 6.59459 18.2315 7.12898 18.2315C7.66336 18.2315 8.09657 18.6647 8.09657 19.1991ZM18.7401 19.1991C18.7401 19.7335 18.3069 20.1667 17.7725 20.1667C17.2381 20.1667 16.8049 19.7335 16.8049 19.1991C16.8049 18.6647 17.2381 18.2315 17.7725 18.2315C18.3069 18.2315 18.7401 18.6647 18.7401 19.1991Z" stroke="white" stroke-linecap="round" stroke-linejoin="round"/>
<path d="M7.33398 11.9154H17.8757L19.709 4.58203H5.95898L7.33398 11.9154Z" fill="white"/>
</svg>
