<svg width="24" height="25" viewBox="0 0 24 25" fill="none" xmlns="http://www.w3.org/2000/svg">
<path d="M11.2445 4.26433C11.476 3.59842 11.5917 3.26546 11.7629 3.17318C11.911 3.09332 12.0894 3.09332 12.2375 3.17318C12.4086 3.26546 12.5244 3.59842 12.7558 4.26433L14.2861 8.66672C14.352 8.85625 14.3849 8.95101 14.4443 9.02159C14.4967 9.08393 14.5636 9.13251 14.6391 9.16312C14.7245 9.19776 14.8248 9.19981 15.0255 9.20389L19.6853 9.29885C20.3901 9.31322 20.7425 9.3204 20.8832 9.45465C21.0049 9.57084 21.06 9.74047 21.0298 9.90602C20.995 10.0973 20.7141 10.3103 20.1523 10.7362L16.4382 13.552C16.2783 13.6732 16.1984 13.7338 16.1496 13.8121C16.1065 13.8812 16.081 13.9598 16.0752 14.0411C16.0687 14.1331 16.0977 14.2291 16.1558 14.4211L17.5055 18.8822C17.7096 19.557 17.8117 19.8944 17.7275 20.0697C17.6546 20.2213 17.5103 20.3262 17.3435 20.3486C17.1508 20.3746 16.8615 20.1732 16.2828 19.7705L12.4571 17.1084C12.2924 16.9938 12.2101 16.9365 12.1206 16.9143C12.0415 16.8947 11.9589 16.8947 11.8798 16.9143C11.7903 16.9365 11.7079 16.9938 11.5432 17.1084L7.71756 19.7705C7.13888 20.1732 6.84954 20.3746 6.65684 20.3486C6.49007 20.3262 6.34577 20.2213 6.27289 20.0697C6.18867 19.8944 6.29074 19.557 6.49489 18.8822L7.84454 14.4211C7.90264 14.2291 7.93169 14.1331 7.92515 14.0411C7.91938 13.9598 7.89383 13.8812 7.85075 13.8121C7.80197 13.7338 7.72202 13.6732 7.56213 13.552L3.84809 10.7362C3.28629 10.3103 3.0054 10.0973 2.97052 9.90602C2.94034 9.74047 2.99545 9.57084 3.11718 9.45465C3.25783 9.3204 3.61025 9.31322 4.31511 9.29885L8.97491 9.20389C9.17552 9.19981 9.27582 9.19776 9.36128 9.16312C9.43677 9.13251 9.50365 9.08393 9.55608 9.02159C9.61544 8.95101 9.64838 8.85625 9.71426 8.66672L11.2445 4.26433Z" fill="#375B51" stroke="#89A082" stroke-opacity="0.16" stroke-linecap="round" stroke-linejoin="round"/>
</svg>
