<svg width="40" height="40" viewBox="0 0 40 40" fill="none" xmlns="http://www.w3.org/2000/svg">
<path d="M22.8833 5.85039L25.8166 11.7171C26.2166 12.5337 27.2833 13.3171 28.1833 13.4671L33.5 14.3504C36.9 14.9171 37.7 17.3837 35.25 19.8171L31.1166 23.9504C30.4166 24.6504 30.0333 26.0004 30.25 26.9671L31.4333 32.0837C32.3666 36.1337 30.2166 37.7004 26.6333 35.5837L21.65 32.6337C20.75 32.1004 19.2666 32.1004 18.35 32.6337L13.3666 35.5837C9.79997 37.7004 7.6333 36.1171 8.56664 32.0837L9.74997 26.9671C9.96664 26.0004 9.5833 24.6504 8.8833 23.9504L4.74997 19.8171C2.31664 17.3837 3.09997 14.9171 6.49997 14.3504L11.8166 13.4671C12.7 13.3171 13.7666 12.5337 14.1666 11.7171L17.1 5.85039C18.7 2.66706 21.3 2.66706 22.8833 5.85039Z" fill="#EBEBEB"/>
</svg>
