<svg width="34" height="37" viewBox="0 0 34 37" fill="none" xmlns="http://www.w3.org/2000/svg">
<path d="M17 34C26.3888 34 34 26.3888 34 17C34 7.61116 26.3888 0 17 0C7.61116 0 0 7.61116 0 17C0 26.3888 7.61116 34 17 34Z" fill="url(#paint0_linear_261_11747)"/>
<g filter="url(#filter0_d_261_11747)">
<mask id="mask0_261_11747" style="mask-type:alpha" maskUnits="userSpaceOnUse" x="0" y="0" width="34" height="34">
<path d="M17 34C26.3888 34 34 26.3888 34 17C34 7.61116 26.3888 0 17 0C7.61116 0 0 7.61116 0 17C0 26.3888 7.61116 34 17 34Z" fill="url(#paint1_linear_261_11747)"/>
</mask>
<g mask="url(#mask0_261_11747)">
<path d="M26.7463 9.74609H7.25296C6.62704 9.74609 6.11963 10.2535 6.11963 10.8794V34.6794C6.11963 35.3053 6.62704 35.8128 7.25296 35.8128H26.7463C27.3722 35.8128 27.8796 35.3053 27.8796 34.6794V10.8794C27.8796 10.2535 27.3722 9.74609 26.7463 9.74609Z" fill="white"/>
</g>
</g>
<path d="M14.9601 12.0156H9.06672C8.69117 12.0156 8.38672 12.3201 8.38672 12.6956C8.38672 13.0712 8.69117 13.3756 9.06672 13.3756H14.9601C15.3356 13.3756 15.6401 13.0712 15.6401 12.6956C15.6401 12.3201 15.3356 12.0156 14.9601 12.0156Z" fill="#E1EBFA"/>
<path d="M14.9601 21.5352H9.06672C8.69117 21.5352 8.38672 21.8396 8.38672 22.2152C8.38672 22.5907 8.69117 22.8952 9.06672 22.8952H14.9601C15.3356 22.8952 15.6401 22.5907 15.6401 22.2152C15.6401 21.8396 15.3356 21.5352 14.9601 21.5352Z" fill="#E1EBFA"/>
<path d="M24.4799 15.4062H9.51995C9.01921 15.4062 8.61328 15.8122 8.61328 16.3129V18.5796C8.61328 19.0803 9.01921 19.4863 9.51995 19.4863H24.4799C24.9807 19.4863 25.3866 19.0803 25.3866 18.5796V16.3129C25.3866 15.8122 24.9807 15.4062 24.4799 15.4062Z" stroke="#1485FD"/>
<path d="M24.4801 24.707H9.52005C8.89413 24.707 8.38672 25.2144 8.38672 25.8404V27.6537C8.38672 28.2796 8.89413 28.787 9.52005 28.787H24.4801C25.106 28.787 25.6134 28.2796 25.6134 27.6537V25.8404C25.6134 25.2144 25.106 24.707 24.4801 24.707Z" fill="#DFEAFB"/>
<path d="M12.0136 7.25474C12.5143 7.25474 12.9203 6.84881 12.9203 6.34807C12.9203 5.84733 12.5143 5.44141 12.0136 5.44141C11.5129 5.44141 11.1069 5.84733 11.1069 6.34807C11.1069 6.84881 11.5129 7.25474 12.0136 7.25474Z" fill="white"/>
<path d="M17.0004 7.25474C17.5012 7.25474 17.9071 6.84881 17.9071 6.34807C17.9071 5.84733 17.5012 5.44141 17.0004 5.44141C16.4997 5.44141 16.0938 5.84733 16.0938 6.34807C16.0938 6.84881 16.4997 7.25474 17.0004 7.25474Z" fill="#1485FD"/>
<path d="M21.9867 7.25474C22.4875 7.25474 22.8934 6.84881 22.8934 6.34807C22.8934 5.84733 22.4875 5.44141 21.9867 5.44141C21.486 5.44141 21.0801 5.84733 21.0801 6.34807C21.0801 6.84881 21.486 7.25474 21.9867 7.25474Z" fill="white"/>
<path d="M19.4942 19.9424C20.1201 19.9424 20.6275 19.435 20.6275 18.8091C20.6275 18.1832 20.1201 17.6758 19.4942 17.6758C18.8683 17.6758 18.3608 18.1832 18.3608 18.8091C18.3608 19.435 18.8683 19.9424 19.4942 19.9424Z" fill="#DFEAFB"/>
<path d="M20.3794 23.6508C20.1981 23.6508 20.0288 23.6508 19.8746 23.6411C19.6848 23.6282 19.5021 23.5633 19.3468 23.4533C19.1915 23.3434 19.0695 23.1928 18.9942 23.018L18.0379 21.128C17.9678 21.0464 17.9328 20.9403 17.9405 20.8329C17.9482 20.7255 17.9981 20.6256 18.0792 20.5548C18.1456 20.5014 18.2285 20.4726 18.3138 20.4734C18.3766 20.4752 18.4382 20.4907 18.4944 20.5186C18.5506 20.5465 18.6001 20.5863 18.6395 20.6353L19.0738 21.228L19.0804 21.2357V18.9838C19.0804 18.872 19.1248 18.7649 19.2038 18.6859C19.2828 18.6069 19.3899 18.5625 19.5016 18.5625C19.6134 18.5625 19.7205 18.6069 19.7995 18.6859C19.8785 18.7649 19.9229 18.872 19.9229 18.9838V20.4571C19.918 20.4029 19.9245 20.3482 19.9419 20.2967C19.9592 20.2451 19.9872 20.1977 20.0239 20.1575C20.0606 20.1173 20.1053 20.0852 20.1551 20.0633C20.2049 20.0413 20.2588 20.03 20.3132 20.03C20.3677 20.03 20.4215 20.0413 20.4713 20.0633C20.5211 20.0852 20.5658 20.1173 20.6025 20.1575C20.6392 20.1977 20.6672 20.2451 20.6846 20.2967C20.702 20.3482 20.7084 20.4029 20.7035 20.4571V20.7642C20.6986 20.71 20.7051 20.6554 20.7225 20.6038C20.7399 20.5522 20.7678 20.5048 20.8046 20.4646C20.8413 20.4244 20.886 20.3923 20.9358 20.3704C20.9856 20.3484 21.0394 20.3371 21.0939 20.3371C21.1483 20.3371 21.2021 20.3484 21.2519 20.3704C21.3018 20.3923 21.3464 20.4244 21.3832 20.4646C21.4199 20.5048 21.4478 20.5522 21.4652 20.6038C21.4826 20.6554 21.4891 20.71 21.4842 20.7642V21.0009C21.4793 20.9467 21.4857 20.892 21.5031 20.8404C21.5205 20.7888 21.5485 20.7415 21.5852 20.7013C21.6219 20.6611 21.6666 20.629 21.7164 20.607C21.7662 20.5851 21.8201 20.5737 21.8745 20.5737C21.9289 20.5737 21.9828 20.5851 22.0326 20.607C22.0824 20.629 22.1271 20.6611 22.1638 20.7013C22.2005 20.7415 22.2285 20.7888 22.2459 20.8404C22.2633 20.892 22.2697 20.9467 22.2648 21.0009V22.4373C22.2571 22.879 22.0574 23.6239 21.355 23.6239C21.304 23.6261 20.872 23.6511 20.3803 23.6511L20.3794 23.6508Z" fill="#1485FD" stroke="white"/>
<defs>
<filter id="filter0_d_261_11747" x="0.119629" y="0.746094" width="33.7598" height="36.2539" filterUnits="userSpaceOnUse" color-interpolation-filters="sRGB">
<feFlood flood-opacity="0" result="BackgroundImageFix"/>
<feColorMatrix in="SourceAlpha" type="matrix" values="0 0 0 0 0 0 0 0 0 0 0 0 0 0 0 0 0 0 127 0" result="hardAlpha"/>
<feOffset dy="-3"/>
<feGaussianBlur stdDeviation="3"/>
<feColorMatrix type="matrix" values="0 0 0 0 0.788235 0 0 0 0 0.803922 0 0 0 0 0.85098 0 0 0 0.349 0"/>
<feBlend mode="normal" in2="BackgroundImageFix" result="effect1_dropShadow_261_11747"/>
<feBlend mode="normal" in="SourceGraphic" in2="effect1_dropShadow_261_11747" result="shape"/>
</filter>
<linearGradient id="paint0_linear_261_11747" x1="17" y1="0" x2="17" y2="34" gradientUnits="userSpaceOnUse">
<stop stop-color="#E3ECFA"/>
<stop offset="1" stop-color="#DAE7FF"/>
</linearGradient>
<linearGradient id="paint1_linear_261_11747" x1="17" y1="0" x2="17" y2="34" gradientUnits="userSpaceOnUse">
<stop stop-color="#E3ECFA"/>
<stop offset="1" stop-color="#DAE7FF"/>
</linearGradient>
</defs>
</svg>
