<svg width="17" height="17" viewBox="0 0 17 17" fill="none" xmlns="http://www.w3.org/2000/svg">
<path d="M9.44375 13H6.94375C6.50625 13 6.19375 12.6875 6.19375 12.25V7H3.44375C2.88125 7 2.6 6.34375 3.00625 5.9375L7.75625 1.1875C7.975 0.96875 8.38125 0.96875 8.6 1.1875L13.35 5.9375C13.7563 6.34375 13.475 7 12.9125 7H10.1938V12.25C10.1938 12.6875 9.85 13 9.44375 13ZM16.1938 12.75V16.25C16.1938 16.6875 15.85 17 15.4438 17H0.94375C0.50625 17 0.19375 16.6875 0.19375 16.25V12.75C0.19375 12.3438 0.50625 12 0.94375 12H5.19375V12.25C5.19375 13.2188 5.975 14 6.94375 14H9.44375C10.3813 14 11.1938 13.2188 11.1938 12.25V12H15.4438C15.85 12 16.1938 12.3438 16.1938 12.75ZM12.3188 15.5C12.3188 15.1562 12.0375 14.875 11.6938 14.875C11.35 14.875 11.0688 15.1562 11.0688 15.5C11.0688 15.8438 11.35 16.125 11.6938 16.125C12.0375 16.125 12.3188 15.8438 12.3188 15.5ZM14.3188 15.5C14.3188 15.1562 14.0375 14.875 13.6938 14.875C13.35 14.875 13.0688 15.1562 13.0688 15.5C13.0688 15.8438 13.35 16.125 13.6938 16.125C14.0375 16.125 14.3188 15.8438 14.3188 15.5Z" fill="#28A745"/>
</svg>
