<svg width="85" height="88" viewBox="0 0 85 88" fill="none" xmlns="http://www.w3.org/2000/svg">
<path d="M42.5 85C65.9721 85 85 65.9721 85 42.5C85 19.0279 65.9721 0 42.5 0C19.0279 0 0 19.0279 0 42.5C0 65.9721 19.0279 85 42.5 85Z" fill="url(#paint0_linear_261_9393)"/>
<g filter="url(#filter0_d_261_9393)">
<mask id="mask0_261_9393" style="mask-type:alpha" maskUnits="userSpaceOnUse" x="0" y="0" width="85" height="85">
<path d="M42.5 85C65.9721 85 85 65.9721 85 42.5C85 19.0279 65.9721 0 42.5 0C19.0279 0 0 19.0279 0 42.5C0 65.9721 19.0279 85 42.5 85Z" fill="url(#paint1_linear_261_9393)"/>
</mask>
<g mask="url(#mask0_261_9393)">
<path d="M66.8665 24.3633H18.1331C16.5683 24.3633 15.2998 25.6318 15.2998 27.1966V86.6966C15.2998 88.2614 16.5683 89.5299 18.1331 89.5299H66.8665C68.4313 89.5299 69.6998 88.2614 69.6998 86.6966V27.1966C69.6998 25.6318 68.4313 24.3633 66.8665 24.3633Z" fill="white"/>
</g>
</g>
<path d="M37.4001 30.0312H22.6668C21.7279 30.0312 20.9668 30.7924 20.9668 31.7313C20.9668 32.6701 21.7279 33.4313 22.6668 33.4313H37.4001C38.339 33.4313 39.1001 32.6701 39.1001 31.7313C39.1001 30.7924 38.339 30.0312 37.4001 30.0312Z" fill="#E1EBFA"/>
<path d="M37.4001 53.832H22.6668C21.7279 53.832 20.9668 54.5931 20.9668 55.532C20.9668 56.4709 21.7279 57.232 22.6668 57.232H37.4001C38.339 57.232 39.1001 56.4709 39.1001 55.532C39.1001 54.5931 38.339 53.832 37.4001 53.832Z" fill="#E1EBFA"/>
<path d="M61.1999 38.5273H23.7999C22.548 38.5273 21.5332 39.5422 21.5332 40.794V46.4607C21.5332 47.7125 22.548 48.7273 23.7999 48.7273H61.1999C62.4517 48.7273 63.4665 47.7125 63.4665 46.4607V40.794C63.4665 39.5422 62.4517 38.5273 61.1999 38.5273Z" stroke="#1485FD" stroke-width="2"/>
<path d="M61.2001 61.7656H23.8001C22.2353 61.7656 20.9668 63.0342 20.9668 64.599V69.1323C20.9668 70.6971 22.2353 71.9656 23.8001 71.9656H61.2001C62.7649 71.9656 64.0335 70.6971 64.0335 69.1323V64.599C64.0335 63.0342 62.7649 61.7656 61.2001 61.7656Z" fill="#DFEAFB"/>
<path d="M30.0333 18.1349C31.2851 18.1349 32.2999 17.1201 32.2999 15.8682C32.2999 14.6164 31.2851 13.6016 30.0333 13.6016C28.7814 13.6016 27.7666 14.6164 27.7666 15.8682C27.7666 17.1201 28.7814 18.1349 30.0333 18.1349Z" fill="white"/>
<path d="M42.5001 18.1349C43.7519 18.1349 44.7667 17.1201 44.7667 15.8682C44.7667 14.6164 43.7519 13.6016 42.5001 13.6016C41.2482 13.6016 40.2334 14.6164 40.2334 15.8682C40.2334 17.1201 41.2482 18.1349 42.5001 18.1349Z" fill="#1485FD"/>
<path d="M54.9664 18.1349C56.2182 18.1349 57.233 17.1201 57.233 15.8682C57.233 14.6164 56.2182 13.6016 54.9664 13.6016C53.7145 13.6016 52.6997 14.6164 52.6997 15.8682C52.6997 17.1201 53.7145 18.1349 54.9664 18.1349Z" fill="white"/>
<path d="M48.7332 49.862C50.298 49.862 51.5666 48.5935 51.5666 47.0286C51.5666 45.4638 50.298 44.1953 48.7332 44.1953C47.1684 44.1953 45.8999 45.4638 45.8999 47.0286C45.8999 48.5935 47.1684 49.862 48.7332 49.862Z" fill="#DFEAFB"/>
<path d="M50.9471 59.1388C50.4937 59.1388 50.0704 59.1388 49.6851 59.1144C49.2104 59.0823 48.7539 58.9199 48.3655 58.6451C47.9772 58.3702 47.6723 57.9936 47.4842 57.5567L45.0934 52.8318C44.918 52.6276 44.8305 52.3624 44.8498 52.094C44.8691 51.8256 44.9937 51.5756 45.1965 51.3987C45.3626 51.2652 45.5699 51.1933 45.783 51.1953C45.9399 51.1998 46.094 51.2384 46.2346 51.3082C46.3751 51.3781 46.4989 51.4776 46.5973 51.5999L47.6831 53.0817L47.6995 53.101V47.4711C47.6995 47.1918 47.8104 46.9239 48.0079 46.7264C48.2054 46.5289 48.4733 46.418 48.7526 46.418C49.032 46.418 49.2998 46.5289 49.4973 46.7264C49.6948 46.9239 49.8058 47.1918 49.8058 47.4711V51.1545C49.7936 51.0189 49.8097 50.8823 49.8532 50.7534C49.8966 50.6244 49.9665 50.5059 50.0583 50.4055C50.1501 50.305 50.2618 50.2248 50.3864 50.1699C50.5109 50.115 50.6455 50.0866 50.7816 50.0866C50.9177 50.0866 51.0523 50.115 51.1768 50.1699C51.3013 50.2248 51.4131 50.305 51.5049 50.4055C51.5967 50.5059 51.6665 50.6244 51.71 50.7534C51.7535 50.8823 51.7696 51.0189 51.7574 51.1545V51.9223C51.7452 51.7867 51.7613 51.6501 51.8048 51.5212C51.8482 51.3922 51.9181 51.2737 52.0099 51.1733C52.1017 51.0728 52.2134 50.9926 52.338 50.9377C52.4625 50.8828 52.5971 50.8544 52.7332 50.8544C52.8693 50.8544 53.0039 50.8828 53.1284 50.9377C53.2529 50.9926 53.3647 51.0728 53.4565 51.1733C53.5483 51.2737 53.6181 51.3922 53.6616 51.5212C53.7051 51.6501 53.7212 51.7867 53.709 51.9223V52.5139C53.6968 52.3784 53.7129 52.2417 53.7564 52.1128C53.7998 51.9838 53.8697 51.8653 53.9615 51.7649C54.0533 51.6644 54.165 51.5842 54.2896 51.5293C54.4141 51.4744 54.5487 51.446 54.6848 51.446C54.8209 51.446 54.9555 51.4744 55.08 51.5293C55.2045 51.5842 55.3162 51.6644 55.4081 51.7649C55.4999 51.8653 55.5697 51.9838 55.6132 52.1128C55.6567 52.2417 55.6728 52.3784 55.6606 52.5139V56.1049C55.6413 57.2093 55.1421 59.0714 53.386 59.0714C53.2585 59.077 52.1784 59.1394 50.9493 59.1394L50.9471 59.1388Z" fill="#1485FD" stroke="white"/>
<defs>
<filter id="filter0_d_261_9393" x="9.2998" y="15.3633" width="66.3999" height="72.6367" filterUnits="userSpaceOnUse" color-interpolation-filters="sRGB">
<feFlood flood-opacity="0" result="BackgroundImageFix"/>
<feColorMatrix in="SourceAlpha" type="matrix" values="0 0 0 0 0 0 0 0 0 0 0 0 0 0 0 0 0 0 127 0" result="hardAlpha"/>
<feOffset dy="-3"/>
<feGaussianBlur stdDeviation="3"/>
<feColorMatrix type="matrix" values="0 0 0 0 0.788235 0 0 0 0 0.803922 0 0 0 0 0.85098 0 0 0 0.349 0"/>
<feBlend mode="normal" in2="BackgroundImageFix" result="effect1_dropShadow_261_9393"/>
<feBlend mode="normal" in="SourceGraphic" in2="effect1_dropShadow_261_9393" result="shape"/>
</filter>
<linearGradient id="paint0_linear_261_9393" x1="42.5" y1="0" x2="42.5" y2="85" gradientUnits="userSpaceOnUse">
<stop stop-color="#E3ECFA"/>
<stop offset="1" stop-color="#DAE7FF"/>
</linearGradient>
<linearGradient id="paint1_linear_261_9393" x1="42.5" y1="0" x2="42.5" y2="85" gradientUnits="userSpaceOnUse">
<stop stop-color="#E3ECFA"/>
<stop offset="1" stop-color="#DAE7FF"/>
</linearGradient>
</defs>
</svg>
