<svg width="24" height="25" viewBox="0 0 24 25" fill="none" xmlns="http://www.w3.org/2000/svg">
<path d="M20.6426 18.2392C20.5692 18.1468 20.4971 18.0544 20.4263 17.9652C19.4532 16.7358 18.8644 15.9939 18.8644 12.5137C18.8644 10.7119 18.4517 9.23351 17.6383 8.12472C17.0385 7.30561 16.2277 6.68422 15.159 6.225C15.1452 6.21701 15.133 6.20653 15.1227 6.19405C14.7383 4.84965 13.6865 3.94922 12.5001 3.94922C11.3138 3.94922 10.2623 4.84965 9.87795 6.19266C9.86769 6.20469 9.85558 6.21484 9.84212 6.22269C7.34823 7.29498 6.13623 9.35224 6.13623 12.5123C6.13623 15.9939 5.54837 16.7358 4.57435 17.9638C4.50357 18.053 4.43147 18.1435 4.35805 18.2378C4.16837 18.4767 4.0482 18.7673 4.01175 19.0754C3.9753 19.3834 4.02409 19.6958 4.15236 19.9758C4.42528 20.5764 5.00695 20.9492 5.6709 20.9492H19.3342C19.995 20.9492 20.5727 20.5769 20.8465 19.979C20.9754 19.699 21.0246 19.3863 20.9885 19.0779C20.9523 18.7695 20.8323 18.4785 20.6426 18.2392Z" fill="#375B51"/>
<path d="M12.4998 23.9492C13.0094 23.9487 13.5093 23.7853 13.9466 23.4762C14.3839 23.1672 14.7422 22.724 14.9836 22.1938C14.995 22.1684 15.0006 22.1399 14.9999 22.1112C14.9993 22.0825 14.9923 22.0544 14.9797 22.0298C14.9672 22.0052 14.9494 21.9848 14.9282 21.9707C14.9071 21.9566 14.8831 21.9492 14.8588 21.9492H10.1415C10.1172 21.9491 10.0932 21.9565 10.072 21.9706C10.0507 21.9847 10.033 22.005 10.0204 22.0296C10.0078 22.0543 10.0008 22.0823 10.0001 22.1111C9.99936 22.1399 10.005 22.1684 10.0164 22.1938C10.2577 22.724 10.616 23.1671 11.0533 23.4761C11.4905 23.7852 11.9903 23.9487 12.4998 23.9492Z" fill="#375B51"/>
</svg>
