<svg width="24" height="24" viewBox="0 0 24 24" fill="none" xmlns="http://www.w3.org/2000/svg">
<path fill-rule="evenodd" clip-rule="evenodd" d="M16.6828 6.90909L18.4414 10.4263L21.0909 12.1927V15.5H19.9734C19.5803 14.3877 18.5196 13.5909 17.2727 13.5909C16.0259 13.5909 14.9652 14.3877 14.572 15.5H10.428C10.0349 14.3877 8.97416 13.5909 7.72731 13.5909C6.48045 13.5909 5.4197 14.3877 5.0266 15.5H3.90909V6.90909H16.6828ZM21.0909 17.4091H19.9734C19.5803 18.5213 18.5196 19.3181 17.2727 19.3181C16.0259 19.3181 14.9652 18.5213 14.5721 17.409H10.428C10.0349 18.5213 8.97415 19.3181 7.72731 19.3181C6.48049 19.3181 5.41978 18.5213 5.02664 17.4091H3.90909C2.85473 17.4091 2 16.5544 2 15.5V6.90909C2 5.85473 2.85473 5 3.90909 5H16.6828C17.4059 5 18.0669 5.40855 18.3903 6.05532L19.9222 9.11911L23 11.171V15.5C23 16.5544 22.1453 17.4091 21.0909 17.4091ZM8.68183 16.4545C8.68183 16.9817 8.25446 17.409 7.72728 17.409C7.2001 17.409 6.77274 16.9817 6.77274 16.4545C6.77274 15.9273 7.2001 15.5 7.72728 15.5C8.25446 15.5 8.68183 15.9273 8.68183 16.4545ZM18.2273 16.4545C18.2273 16.9817 17.7999 17.4091 17.2727 17.4091C16.7455 17.4091 16.3182 16.9817 16.3182 16.4545C16.3182 15.9274 16.7455 15.5 17.2727 15.5C17.7999 15.5 18.2273 15.9274 18.2273 16.4545Z" fill="black"/>
</svg>
