<svg width="430" height="162" viewBox="0 0 430 162" fill="none" xmlns="http://www.w3.org/2000/svg">
<path d="M0 0H430V162H0V0Z" fill="url(#paint0_linear_2019_10120)"/>
<path fill-rule="evenodd" clip-rule="evenodd" d="M430 118.889L418.175 115.63C405.992 112.37 382.342 105.852 358.333 100.963C334.325 96.0741 310.675 92.8148 286.667 94.4444C262.658 96.0741 239.008 102.593 215 110.741C190.992 118.889 167.342 128.667 143.333 128.667C119.325 128.667 95.675 118.889 71.6667 107.481C47.6584 96.0741 24.0084 83.037 11.825 76.5185L3.05176e-05 70V158H11.825C24.0084 158 47.6584 158 71.6667 158C95.675 158 119.325 158 143.333 158C167.342 158 190.992 158 215 158C239.008 158 262.658 158 286.667 158C310.675 158 334.325 158 358.333 158C382.342 158 405.992 158 418.175 158H430V118.889Z" fill="#D8E8FF"/>
<defs>
<linearGradient id="paint0_linear_2019_10120" x1="215" y1="0" x2="215" y2="183.185" gradientUnits="userSpaceOnUse">
<stop stop-color="#F1F7FF"/>
<stop offset="1" stop-color="#D7E7FF"/>
</linearGradient>
</defs>
</svg>
